<?xml version="1.0" encoding="UTF-8" standalone="no"?>
<!-- Created with Inkscape (http://www.inkscape.org/) -->

<svg
   xmlns:dc="http://purl.org/dc/elements/1.1/"
   xmlns:cc="http://creativecommons.org/ns#"
   xmlns:rdf="http://www.w3.org/1999/02/22-rdf-syntax-ns#"
   xmlns:svg="http://www.w3.org/2000/svg"
   xmlns="http://www.w3.org/2000/svg"
   xmlns:sodipodi="http://sodipodi.sourceforge.net/DTD/sodipodi-0.dtd"
   xmlns:inkscape="http://www.inkscape.org/namespaces/inkscape"
   width="64mm"
   height="64mm"
   viewBox="0 0 64 64"
   version="1.1"
   id="svg8"
   inkscape:version="0.92.3 (2405546, 2018-03-11)"
   sodipodi:docname="cog-icon.svg"
   inkscape:export-filename="C:\Users\mayan\Desktop\Mayank\Projects\shoebox\plus-icon.png"
   inkscape:export-xdpi="25.4"
   inkscape:export-ydpi="25.4">
  <defs
     id="defs2" />
  <sodipodi:namedview
     id="base"
     pagecolor="#ffffff"
     bordercolor="#666666"
     borderopacity="1.0"
     inkscape:pageopacity="0.0"
     inkscape:pageshadow="2"
     inkscape:zoom="3"
     inkscape:cx="-22.949425"
     inkscape:cy="156.66615"
     inkscape:document-units="mm"
     inkscape:current-layer="layer1"
     showgrid="false"
     inkscape:window-width="3200"
     inkscape:window-height="1675"
     inkscape:window-x="-13"
     inkscape:window-y="-13"
     inkscape:window-maximized="1"
     inkscape:snap-to-guides="false"
     inkscape:lockguides="true" />
  <metadata
     id="metadata5">
    <rdf:RDF>
      <cc:Work
         rdf:about="">
        <dc:format>image/svg+xml</dc:format>
        <dc:type
           rdf:resource="http://purl.org/dc/dcmitype/StillImage" />
        <dc:title></dc:title>
      </cc:Work>
    </rdf:RDF>
  </metadata>
  <g
     inkscape:label="Layer 1"
     inkscape:groupmode="layer"
     id="layer1"
     transform="translate(0,-233)">
    <ellipse
       style="opacity:1;fill:none;fill-opacity:1;stroke:#58e3ff;stroke-width:8.5398922;stroke-miterlimit:4;stroke-dasharray:none;stroke-opacity:1"
       id="path956"
       cx="30.980114"
       cy="265.22458"
       rx="19.032053"
       ry="19.80073" />
    <path
       id="rect1097"
       style="opacity:0.01000001;fill:none;fill-opacity:1;stroke:none;stroke-width:9.60737896;stroke-miterlimit:4;stroke-dasharray:none;stroke-opacity:1"
       d="m 33.04003,259.15576 c -0.0179,0.017 -0.05861,0.0558 -0.08644,0.0823 0.05564,0.0129 0.111693,0.0238 0.167398,0.0365 -0.02289,-0.039 -0.04331,-0.0801 -0.06663,-0.11881 z m 1.630474,0 c -0.06822,0.12864 -0.135392,0.2579 -0.203188,0.38683 0.287766,0.0489 0.576219,0.0926 0.865621,0.12987 v -0.21055 c 0,-0.16948 -0.13619,-0.30615 -0.30506,-0.30615 z m -6.597888,0.20225 c -5.64e-4,0.0285 -0.0026,0.0511 -0.0033,0.0785 0.0165,-0.009 0.03126,-0.0185 0.04791,-0.0275 -0.01218,-0.0161 -0.02913,-0.0338 -0.0446,-0.0508 z m 2.48068,0.005 c -0.378946,-0.005 -0.643929,0.0634 -1.120023,0.14146 -0.08647,0.0404 -0.172896,0.0811 -0.259357,0.12158 -0.0289,0.0447 -0.05898,0.0888 -0.0892,0.13263 0.06944,-0.0201 0.139303,-0.0389 0.21145,-0.0525 0.150908,-0.0284 0.305341,-0.0337 0.458691,-0.0409 0.107556,-0.005 0.215339,-0.007 0.323233,-0.007 0.323682,-6e-5 0.648304,0.0187 0.970796,0.0298 0.154604,0.015 0.310352,0.0109 0.465848,0.006 0.02949,-0.0284 0.07136,-0.0679 0.111232,-0.10609 -0.233159,-0.0634 -0.465869,-0.12847 -0.697673,-0.19619 -0.137779,-0.016 -0.264574,-0.027 -0.374991,-0.0288 z m 2.328148,0.54101 c 0.06629,0.11301 0.11763,0.22541 0.162991,0.34265 0.01824,0.0155 0.03753,0.0318 0.05672,0.048 0.05841,-0.10651 0.112654,-0.20406 0.16905,-0.30615 -0.129699,-0.0279 -0.259432,-0.0549 -0.38876,-0.0846 z m -6.040631,0.1658 c -0.03091,0.0223 -0.05936,0.0443 -0.08921,0.0663 -0.0049,0.19396 -0.0055,0.42463 -0.005,0.6604 0.05264,-0.0316 0.08181,-0.0492 0.136562,-0.0823 -0.01328,-0.21484 -0.02749,-0.42963 -0.0424,-0.64437 z m 7.492144,0.12545 c 0.221797,0.48792 0.428643,0.98302 0.632145,1.47772 0.06247,0.15186 0.229781,0.57983 0.367835,0.92731 v -2.25583 c -0.334356,-0.0417 -0.667741,-0.0924 -0.99998,-0.1492 z m -4.529648,0.13484 c -0.108835,0.003 -0.218756,-0.002 -0.325984,0.0172 -0.04448,0.007 -0.08859,0.0202 -0.132707,0.0315 0.141272,0.35951 0.262063,0.72588 0.360674,1.09862 0.377032,-0.37657 0.753567,-0.75346 1.130485,-1.13012 -0.344018,-0.0126 -0.688295,-0.0258 -1.032468,-0.0172 z m 2.071547,0.0293 c -0.03092,-0.002 -0.06254,10e-4 -0.09361,5.6e-4 -0.09904,0.0948 -0.147972,0.14138 -0.391512,0.37414 -0.504423,0.50394 -1.010088,1.00672 -1.513184,1.512 0.06243,0.33678 0.110693,0.6767 0.141516,1.01904 0.04484,0.49802 0.06918,0.82658 -0.186671,1.25779 -0.0709,0.11949 -0.194561,0.19827 -0.291845,0.29732 -0.137211,0.0506 -0.268338,0.1238 -0.411884,0.15141 -0.292316,0.0562 -0.978603,-0.0167 -1.237313,-0.19728 -0.09392,0.0683 -0.1945,0.1301 -0.284685,0.20226 -0.01638,0.008 -0.03219,0.0187 -0.04846,0.0276 0.02625,0.0323 0.04756,0.0581 0.07544,0.0928 0.144271,0.1797 0.184407,0.3565 0.162993,0.49239 0.04907,0.0275 0.09905,0.054 0.144269,0.0873 0.06157,0.0453 0.101226,0.11911 0.159689,0.16855 0.154336,0.0916 0.263554,0.19344 0.344709,0.32439 0.243646,-0.19157 0.479568,-0.40658 0.767054,-0.69134 1.273051,-1.26093 2.334573,-2.70898 3.3441,-4.18506 0.03356,-0.0625 0.05906,-0.11097 0.09305,-0.17407 -0.04127,-0.15338 -0.08457,-0.30594 -0.136009,-0.45538 -0.14444,-0.12188 -0.299472,-0.24524 -0.375546,-0.27631 -0.08147,-0.0333 -0.174279,-0.0234 -0.262107,-0.0282 z m -3.155226,0.24151 c -0.01632,0.006 -0.03332,0.0136 -0.04956,0.0198 0.02335,0.0683 0.04657,0.13678 0.06993,0.20503 0.02156,0.21623 0.06405,0.43094 0.06498,0.64824 8.46e-4,0.2035 -0.05169,0.63739 -0.102966,1.01628 0.144222,-0.1494 0.151773,-0.15955 0.36508,-0.37578 0.02922,-0.0296 0.05884,-0.0588 0.0881,-0.0885 -0.107619,-0.48541 -0.252059,-0.96212 -0.435564,-1.42523 z m 5.129305,0.12599 c -0.04901,0.0946 -0.09845,0.18897 -0.147574,0.2835 0.0541,0.0691 0.04115,0.0542 0.14427,0.18457 0.173518,0.2195 0.217786,0.23209 0.344155,0.46423 0.121344,0.22286 0.252843,0.52504 0.363432,0.77865 -0.05784,-0.14466 -0.164494,-0.41772 -0.199888,-0.504 -0.159464,-0.38875 -0.325787,-0.79729 -0.504395,-1.20695 z m -5.763654,0.21055 c -0.06004,0.0314 -0.133227,0.0693 -0.237331,0.12213 -0.0094,0.0518 -0.01911,0.10343 -0.02751,0.1553 -0.02365,0.0621 -0.04457,0.12534 -0.06718,0.18789 -0.0079,0.0428 -0.01748,0.0838 -0.03635,0.18015 -0.0092,0.0201 -0.01424,0.0426 -0.02754,0.0602 -0.01221,0.0161 -0.02607,0.0309 -0.03909,0.0465 -0.01855,0.0528 -0.03798,0.10535 -0.05672,0.15806 0.0049,0.17518 0.01376,0.35019 0.01485,0.52554 8.46e-4,0.12473 -0.0028,0.3185 -0.0038,0.49184 0.0081,0.0575 0.01547,0.10587 0.02368,0.168 0.03416,0.0966 0.08672,0.26239 0.139863,0.42001 0.02841,-0.0281 0.09549,-0.0991 0.123346,-0.1271 0.04297,-0.21244 0.08302,-0.43188 0.09141,-0.4819 0.04357,-0.25981 0.161729,-1.13006 0.15969,-1.42579 -0.0011,-0.16138 -0.03534,-0.32073 -0.05726,-0.48079 z m 5.358925,0.81292 c 0.115894,0.65619 0.241908,1.38097 0.307265,1.94747 0.08547,0.74084 0.162588,1.48273 -0.01762,2.21991 -0.04986,0.20396 -0.100887,0.36482 -0.155285,0.50676 h 1.308895 c 0.02385,-0.16124 0.05096,-0.32214 0.05287,-0.48575 -0.06491,-0.4639 0.0018,-0.0893 -0.159137,-0.66095 -0.04785,-0.17002 -0.08477,-0.343 -0.133259,-0.51284 -0.05399,-0.18912 -0.116522,-0.37561 -0.174003,-0.56369 -0.276736,-0.90549 -0.105801,-0.4107 -0.452634,-1.32022 -0.11122,-0.2524 -0.261003,-0.60792 -0.39537,-0.86873 -0.06389,-0.12403 -0.116457,-0.18719 -0.181714,-0.26196 z m -0.540185,0.76927 c -0.42902,0.80268 -0.866978,1.60015 -1.342486,2.37741 -0.04457,0.073 -0.602518,0.93122 -0.990068,1.52746 h 1.251626 c 0.02837,-0.38097 0.453593,-0.45836 0.643711,0 h 0.38986 c 0.08184,-0.15256 0.15199,-0.33119 0.216956,-0.58081 0.176673,-0.67883 0.09906,-1.3634 0.02038,-2.04749 -0.03732,-0.32416 -0.111456,-0.79953 -0.189974,-1.27657 z m -3.604556,0.31112 c -0.3413,0.35116 -0.582807,0.60311 -0.805601,0.83116 -0.04908,0.19864 -0.107733,0.39442 -0.194932,0.5786 0.14172,0.0473 0.310132,0.0587 0.425104,0.0718 0.07269,0.008 0.145429,0.0182 0.218609,0.0188 0.05404,5.6e-4 0.107517,-0.009 0.161338,-0.0149 0.03916,-0.0195 0.08988,-0.0254 0.117839,-0.0591 0.231957,-0.28036 0.171487,-0.51513 0.138213,-0.89913 -0.01529,-0.17644 -0.03646,-0.35213 -0.06057,-0.52722 z m 5.527975,0.29898 c 0.06415,0.17023 0.09971,0.28275 0.281932,0.87646 0.05749,0.18731 0.119678,0.37307 0.173457,0.56147 0.01813,0.0635 0.03384,0.12773 0.0501,0.19177 v -0.35534 c -0.160766,-0.40786 -0.316571,-0.79684 -0.505497,-1.27436 z m -7.895219,0.15031 c -0.01869,0.0321 -0.03993,0.0627 -0.05893,0.0945 0.01055,0.1 0.02298,0.1997 0.02698,0.30007 0.01653,-0.12963 0.02625,-0.26144 0.03194,-0.39458 z m 3.464689,1.91542 c -0.227102,0.25077 -0.457653,0.49826 -0.698224,0.7372 -0.18928,0.188 -0.358071,0.34564 -0.522568,0.49184 h 0.502743 c 0.0837,-0.10502 0.183324,-0.20614 0.245039,-0.31831 0.164906,-0.29969 0.313239,-0.60825 0.47301,-0.91073 z m -3.425593,0.13152 c -0.05405,0.0253 -0.108258,0.0498 -0.164647,0.0697 -0.09385,0.0328 -0.200578,0.0567 -0.312217,0.0763 v 0.55154 c 0.0044,0.0228 0.0068,0.0391 0.01156,0.0625 0.01516,0.075 0.03863,0.14811 0.06002,0.2216 0.05579,0.0691 0.137546,0.11606 0.233474,0.11606 h 0.973001 c -0.13065,-0.0637 -0.202094,-0.20304 -0.31332,-0.28847 -0.0076,-0.005 -0.01798,0.006 -0.02698,0.009 -0.05459,-0.0476 -0.124589,-0.0823 -0.164093,-0.14313 -0.05106,-0.0785 -0.06637,-0.1749 -0.09966,-0.2625 -0.03958,-0.10415 -0.03307,-0.15743 -0.0017,-0.18181 -0.07225,-0.0852 -0.131691,-0.15621 -0.195482,-0.23155 z m 0.776967,0.21498 c -0.0054,-0.005 -0.02827,8.4e-4 -0.02202,0.006 0.01511,0.0107 0.03145,0.0193 0.04735,0.0288 -0.0085,-0.0115 -0.01524,-0.0247 -0.02532,-0.0348 z m 0.04626,0.063 c -0.01133,0.0578 -0.03312,0.10718 -0.06607,0.14425 0.155606,0.0752 0.244439,0.0993 0.09857,-0.1 -0.01078,-0.0148 -0.02236,-0.0289 -0.03249,-0.0442 z"
       inkscape:connector-curvature="0" />
    <rect
       style="opacity:1;fill:#58e3ff;fill-opacity:1;stroke:#cccccc;stroke-width:0;stroke-linecap:square;stroke-miterlimit:4;stroke-dasharray:none;stroke-opacity:1"
       id="rect1178"
       width="9.0688391"
       height="7.3094478"
       x="26.226284"
       y="236.76328"
       ry="0.30591592" />
    <rect
       style="opacity:1;fill:#58e3ff;fill-opacity:1;stroke:#cccccc;stroke-width:0;stroke-linecap:square;stroke-miterlimit:4;stroke-dasharray:none;stroke-opacity:1"
       id="rect1178-7"
       width="9.0688391"
       height="7.3094478"
       x="26.531715"
       y="285.1705"
       ry="0.30591592" />
    <rect
       style="opacity:1;fill:#58e3ff;fill-opacity:1;stroke:#cccccc;stroke-width:0;stroke-linecap:square;stroke-miterlimit:4;stroke-dasharray:none;stroke-opacity:1"
       id="rect1178-7-3"
       width="9.085288"
       height="7.2962608"
       x="203.29843"
       y="184.91478"
       ry="0.30536404"
       transform="matrix(0.70293386,0.71125522,-0.7087283,0.70548154,0,0)" />
    <rect
       style="opacity:1;fill:#58e3ff;fill-opacity:1;stroke:#cccccc;stroke-width:0;stroke-linecap:square;stroke-miterlimit:4;stroke-dasharray:none;stroke-opacity:1"
       id="rect1178-7-3-9"
       width="9.085288"
       height="7.2962608"
       x="206.55623"
       y="135.03951"
       ry="0.30536404"
       transform="matrix(0.70293386,0.71125522,-0.7087283,0.70548154,0,0)" />
    <rect
       style="opacity:1;fill:#58e3ff;fill-opacity:1;stroke:#cccccc;stroke-width:0;stroke-linecap:square;stroke-miterlimit:4;stroke-dasharray:none;stroke-opacity:1"
       id="rect1178-7-3-9-2"
       width="9.1014347"
       height="7.2832704"
       x="259.11948"
       y="-63.732811"
       ry="0.30482036"
       transform="matrix(-0.01400265,0.99990196,-0.99990054,-0.01410349,0,0)" />
    <rect
       style="opacity:1;fill:#58e3ff;fill-opacity:1;stroke:#cccccc;stroke-width:0;stroke-linecap:square;stroke-miterlimit:4;stroke-dasharray:none;stroke-opacity:1"
       id="rect1178-7-3-9-2-2"
       width="9.1014347"
       height="7.2832704"
       x="258.57068"
       y="-12.361226"
       ry="0.30482036"
       transform="matrix(-0.01400265,0.99990196,-0.99990054,-0.01410349,0,0)" />
    <rect
       style="opacity:1;fill:#58e3ff;fill-opacity:1;stroke:#cccccc;stroke-width:0;stroke-linecap:square;stroke-miterlimit:4;stroke-dasharray:none;stroke-opacity:1"
       id="rect1178-7-3-9-2-2-0"
       width="9.085865"
       height="7.2957978"
       x="164.14668"
       y="-183.56656"
       ry="0.30534467"
       transform="matrix(-0.69023639,0.72358394,-0.72110478,-0.69282603,0,0)" />
    <rect
       style="opacity:1;fill:#58e3ff;fill-opacity:1;stroke:#cccccc;stroke-width:0;stroke-linecap:square;stroke-miterlimit:4;stroke-dasharray:none;stroke-opacity:1"
       id="rect1178-7-3-9-2-2-0-5"
       width="9.085865"
       height="7.2957978"
       x="164.54956"
       y="-234.12709"
       ry="0.30534467"
       transform="matrix(-0.69023639,0.72358394,-0.72110478,-0.69282603,0,0)" />
  </g>
</svg>
