<?xml version="1.0" encoding="UTF-8" standalone="no"?>
<!-- Created with Inkscape (http://www.inkscape.org/) -->

<svg
   xmlns:dc="http://purl.org/dc/elements/1.1/"
   xmlns:cc="http://creativecommons.org/ns#"
   xmlns:rdf="http://www.w3.org/1999/02/22-rdf-syntax-ns#"
   xmlns:svg="http://www.w3.org/2000/svg"
   xmlns="http://www.w3.org/2000/svg"
   xmlns:sodipodi="http://sodipodi.sourceforge.net/DTD/sodipodi-0.dtd"
   xmlns:inkscape="http://www.inkscape.org/namespaces/inkscape"
   width="64mm"
   height="64mm"
   viewBox="0 0 64 64"
   version="1.1"
   id="svg8"
   inkscape:version="0.92.3 (2405546, 2018-03-11)"
   sodipodi:docname="shoebox.svg"
   inkscape:export-filename="C:\Users\mayan\Desktop\Mayank\Projects\shoebox\assets\shoebox.png"
   inkscape:export-xdpi="645.22015"
   inkscape:export-ydpi="645.22015">
  <defs
     id="defs2">
    <inkscape:perspective
       sodipodi:type="inkscape:persp3d"
       inkscape:vp_x="0 : 148.49999 : 1"
       inkscape:vp_y="0 : 999.99994 : 0"
       inkscape:vp_z="210 : 148.49999 : 1"
       inkscape:persp3d-origin="105 : 98.999994 : 1"
       id="perspective4522" />
  </defs>
  <sodipodi:namedview
     id="base"
     pagecolor="#58e3ff"
     bordercolor="#666666"
     borderopacity="1.0"
     inkscape:pageopacity="0"
     inkscape:pageshadow="2"
     inkscape:zoom="1.0076756"
     inkscape:cx="-124.59518"
     inkscape:cy="476.32163"
     inkscape:document-units="mm"
     inkscape:current-layer="layer1"
     showgrid="false"
     inkscape:window-width="3200"
     inkscape:window-height="1675"
     inkscape:window-x="-13"
     inkscape:window-y="-13"
     inkscape:window-maximized="1" />
  <metadata
     id="metadata5">
    <rdf:RDF>
      <cc:Work
         rdf:about="">
        <dc:format>image/svg+xml</dc:format>
        <dc:type
           rdf:resource="http://purl.org/dc/dcmitype/StillImage" />
        <dc:title />
      </cc:Work>
    </rdf:RDF>
  </metadata>
  <g
     inkscape:label="Layer 1"
     inkscape:groupmode="layer"
     id="layer1"
     transform="translate(0,-233)">
    <path
       style="fill:#f9f9f9;stroke:none;stroke-width:0.22926551px;stroke-linecap:butt;stroke-linejoin:miter;stroke-opacity:1"
       d="m 14.896511,269.09078 c 16.011233,-9.92227 17.072217,-10.83649 17.072217,-10.83649 l 17.361567,10.94231 -18.036737,9.5171 z"
       id="path4558"
       inkscape:connector-curvature="0"
       sodipodi:nodetypes="ccccc" />
    <text
       xml:space="preserve"
       style="font-style:normal;font-variant:normal;font-weight:normal;font-stretch:normal;font-size:10.58333302px;line-height:1.25;font-family:SimSun-ExtB;-inkscape-font-specification:SimSun-ExtB;letter-spacing:0px;word-spacing:0px;fill:#000000;fill-opacity:1;stroke:none;stroke-width:0.26458332"
       x="77.06218"
       y="105.06304"
       id="text4574"><tspan
         sodipodi:role="line"
         id="tspan4572"
         x="77.06218"
         y="115.48101"
         style="font-style:normal;font-variant:normal;font-weight:normal;font-stretch:normal;font-size:10.58333302px;line-height:0;font-family:quicksand;-inkscape-font-specification:'quicksand, Normal';font-variant-ligatures:normal;font-variant-caps:normal;font-variant-numeric:normal;font-feature-settings:normal;text-align:start;letter-spacing:0.01322917px;writing-mode:lr-tb;text-anchor:start;stroke-width:0.26458332" /></text>
    <path
       style="fill:#ffffff;stroke:none;stroke-width:0.22926551px;stroke-linecap:butt;stroke-linejoin:miter;stroke-opacity:1"
       d="m 13.449117,248.32932 c 17.265114,-10.41664 17.265114,-10.41664 17.265114,-10.41664 v 17.71859 l -17.07221,10.83648 z"
       id="path931"
       inkscape:connector-curvature="0" />
    <path
       style="fill:#ffffff;stroke:none;stroke-width:0.22926551px;stroke-linecap:butt;stroke-linejoin:miter;stroke-opacity:1"
       d="m 50.374295,248.44336 c -17.26512,-10.41664 -17.26512,-10.41664 -17.26512,-10.41664 v 17.71859 l 17.07222,10.83649 z"
       id="path931-2"
       inkscape:connector-curvature="0" />
    <g
       aria-label="Shoebox"
       transform="scale(1.0322095,0.96879557)"
       style="font-style:normal;font-variant:normal;font-weight:normal;font-stretch:normal;font-size:12.44334793px;line-height:1.25;font-family:Quicksand;-inkscape-font-specification:Quicksand;letter-spacing:0px;word-spacing:0px;fill:#ffffff;fill-opacity:1;stroke:none;stroke-width:0.3110837"
       id="text978">
      <path
         sodipodi:type="inkscape:offset"
         inkscape:radius="0"
         inkscape:original="M 26.126953 290.23438 C 25.687288 290.23438 25.281503 290.34633 24.908203 290.57031 C 24.534902 290.79429 24.235699 291.09154 24.011719 291.46484 C 23.796034 291.83814 23.689453 292.25468 23.689453 292.71094 L 23.675781 296.6543 C 23.675781 297.11056 23.787739 297.53052 24.011719 297.91211 C 24.235699 298.28541 24.529527 298.58803 24.894531 298.82031 C 25.267832 299.04429 25.678992 299.15625 26.126953 299.15625 C 26.574913 299.15625 26.982651 299.04429 27.347656 298.82031 C 27.720956 298.58803 28.014784 298.28541 28.230469 297.91211 C 28.454449 297.53052 28.566406 297.11056 28.566406 296.6543 L 28.554688 292.71094 C 28.554688 292.25468 28.44273 291.83814 28.21875 291.46484 C 28.003065 291.09154 27.712661 290.79429 27.347656 290.57031 C 26.982651 290.34633 26.574913 290.23438 26.126953 290.23438 z M 42.824219 290.23438 C 42.384554 290.23438 41.976816 290.34633 41.603516 290.57031 C 41.230215 290.79429 40.932964 291.09154 40.708984 291.46484 C 40.4933 291.83814 40.384766 292.25468 40.384766 292.71094 L 40.373047 296.6543 C 40.373047 297.11056 40.485004 297.53052 40.708984 297.91211 C 40.932964 298.28541 41.226792 298.58803 41.591797 298.82031 C 41.965097 299.04429 42.376258 299.15625 42.824219 299.15625 C 43.272179 299.15625 43.677964 299.04429 44.042969 298.82031 C 44.416269 298.58803 44.710097 298.28541 44.925781 297.91211 C 45.149761 297.53052 45.263672 297.11056 45.263672 296.6543 L 45.25 292.71094 C 45.25 292.25468 45.138043 291.83814 44.914062 291.46484 C 44.698377 291.09154 44.407973 290.79429 44.042969 290.57031 C 43.677964 290.34633 43.272179 290.23438 42.824219 290.23438 z M 14.615234 290.24609 C 14.183865 290.24609 13.781504 290.35463 13.408203 290.57031 C 13.043198 290.78599 12.749371 291.07983 12.525391 291.45312 C 12.301411 291.81813 12.189453 292.23271 12.189453 292.69727 C 12.189453 293.20329 12.296034 293.65992 12.511719 294.06641 C 12.735699 294.46459 13.076947 294.79705 13.533203 295.0625 C 13.78207 295.20353 14.048029 295.35215 14.330078 295.50977 C 14.612127 295.66739 14.818443 295.78276 14.951172 295.85742 C 15.349359 296.0814 15.548828 296.34736 15.548828 296.6543 C 15.548828 296.91976 15.457893 297.15247 15.275391 297.35156 C 15.092888 297.55066 14.872396 297.65039 14.615234 297.65039 C 14.358072 297.65039 14.137581 297.55408 13.955078 297.36328 C 13.772576 297.16419 13.681641 296.92805 13.681641 296.6543 L 13.681641 296.08203 C 13.681641 296.04056 13.665992 296.01953 13.632812 296.01953 L 12.238281 296.01953 C 12.196801 296.01953 12.175781 296.04056 12.175781 296.08203 L 12.175781 296.6543 C 12.175781 297.11056 12.284315 297.53052 12.5 297.91211 C 12.723981 298.28541 13.017808 298.58803 13.382812 298.82031 C 13.756113 299.04429 14.167274 299.15625 14.615234 299.15625 C 15.063194 299.15625 15.468979 299.04772 15.833984 298.83203 C 16.207284 298.60805 16.503065 298.30885 16.71875 297.93555 C 16.942731 297.55395 17.054688 297.12714 17.054688 296.6543 C 17.054687 296.16486 16.933931 295.7537 16.693359 295.42188 C 16.452788 295.08176 16.125716 294.79673 15.710938 294.56445 C 15.686051 294.54786 15.614185 294.51119 15.498047 294.45312 C 15.390205 294.39506 15.266025 294.32857 15.125 294.25391 C 14.983975 294.17095 14.850996 294.09908 14.726562 294.04102 C 14.610426 293.97463 14.531714 293.92916 14.490234 293.9043 C 14.183298 293.73839 13.971607 293.56532 13.855469 293.38281 C 13.739331 293.20031 13.681641 292.97102 13.681641 292.69727 C 13.681641 292.43181 13.772576 292.20447 13.955078 292.01367 C 14.137581 291.81458 14.358072 291.71484 14.615234 291.71484 C 14.864101 291.71484 15.079216 291.80577 15.261719 291.98828 C 15.444221 292.17078 15.537109 292.40692 15.537109 292.69727 L 15.548828 293.71875 C 15.548828 293.75195 15.564476 293.76758 15.597656 293.76758 L 16.992188 293.76758 C 17.025367 293.76758 17.041016 293.75195 17.041016 293.71875 L 17.041016 292.69727 C 17.041016 292.24101 16.929058 291.82984 16.705078 291.46484 C 16.489393 291.09154 16.195566 290.79772 15.822266 290.58203 C 15.457261 290.35805 15.054899 290.24609 14.615234 290.24609 z M 17.994141 290.37109 C 17.952661 290.37109 17.931641 290.38672 17.931641 290.41992 L 17.919922 298.96875 C 17.919922 299.01022 17.93557 299.03125 17.96875 299.03125 L 19.375 299.03125 C 19.40818 299.03125 19.425781 299.01022 19.425781 298.96875 L 19.425781 295.31055 L 21.291016 295.31055 L 21.291016 298.96875 C 21.291016 299.01022 21.312036 299.03125 21.353516 299.03125 L 22.748047 299.03125 C 22.789527 299.03125 22.810547 299.01022 22.810547 298.96875 L 22.785156 290.41992 C 22.785156 290.38672 22.764136 290.37109 22.722656 290.37109 L 21.341797 290.37109 C 21.308617 290.37109 21.291016 290.38672 21.291016 290.41992 L 21.291016 293.80469 L 19.425781 293.80469 L 19.4375 290.41992 C 19.4375 290.38672 19.41648 290.37109 19.375 290.37109 L 17.994141 290.37109 z M 29.574219 290.37109 C 29.541039 290.37109 29.525391 290.38672 29.525391 290.41992 L 29.511719 298.96875 C 29.511719 299.01022 29.52932 299.03125 29.5625 299.03125 L 33.582031 299.03125 C 33.615211 299.03125 33.630859 299.01562 33.630859 298.98242 L 33.630859 297.5625 C 33.630859 297.52103 33.615211 297.5 33.582031 297.5 L 31.017578 297.5 L 31.017578 295.32422 L 33.582031 295.32422 C 33.615211 295.32422 33.630859 295.30664 33.630859 295.27344 L 33.619141 293.86719 C 33.619141 293.83399 33.601539 293.81836 33.568359 293.81836 L 31.017578 293.81836 L 31.017578 291.87695 L 33.568359 291.87695 C 33.601539 291.87695 33.619141 291.85937 33.619141 291.82617 L 33.619141 290.43359 C 33.619141 290.39213 33.601539 290.37109 33.568359 290.37109 L 29.574219 290.37109 z M 34.8125 290.37109 C 34.77932 290.37109 34.761719 290.38672 34.761719 290.41992 L 34.738281 298.96875 C 34.738281 299.01022 34.753929 299.03125 34.787109 299.03125 L 37.015625 299.03125 C 37.496768 299.03125 37.930421 298.91587 38.320312 298.68359 C 38.718499 298.44302 39.035302 298.1228 39.267578 297.72461 C 39.499854 297.32642 39.615234 296.88739 39.615234 296.40625 C 39.615234 296.05784 39.548745 295.72539 39.416016 295.41016 C 39.283287 295.09492 39.09604 294.81675 38.855469 294.57617 C 39.079449 294.38538 39.272072 294.13702 39.429688 293.83008 C 39.595599 293.52314 39.677734 293.1907 39.677734 292.83398 C 39.677734 292.39432 39.5692 291.98853 39.353516 291.61523 C 39.137831 291.24193 38.844004 290.94273 38.470703 290.71875 C 38.097402 290.48647 37.674019 290.37109 37.201172 290.37109 L 34.8125 290.37109 z M 45.654297 290.37109 C 45.621117 290.37109 45.606941 290.38672 45.615234 290.41992 L 47.009766 294.52734 L 45.591797 298.96875 C 45.583504 299.01022 45.595726 299.03125 45.628906 299.03125 L 47.021484 299.03125 C 47.062964 299.03125 47.089363 299.01022 47.097656 298.96875 L 47.955078 295.75781 L 48.800781 298.96875 C 48.817375 299.01022 48.843773 299.03125 48.876953 299.03125 L 50.269531 299.03125 C 50.311011 299.03125 50.323234 299.01022 50.306641 298.96875 L 48.900391 294.51367 L 50.294922 290.41992 C 50.303215 290.38672 50.290993 290.37109 50.257812 290.37109 L 48.876953 290.37109 C 48.835473 290.37109 48.809075 290.38672 48.800781 290.41992 L 47.955078 293.38281 L 47.121094 290.41992 C 47.1128 290.38672 47.088355 290.37109 47.046875 290.37109 L 45.654297 290.37109 z M 26.126953 291.72656 C 26.392411 291.72656 26.612903 291.82288 26.787109 292.01367 C 26.961316 292.20447 27.048828 292.43718 27.048828 292.71094 L 27.060547 296.6543 C 27.060547 296.91146 26.966189 297.14418 26.775391 297.35156 C 26.592888 297.55066 26.37582 297.65039 26.126953 297.65039 C 25.86979 297.65039 25.651253 297.55408 25.46875 297.36328 C 25.286248 297.16419 25.193359 296.92805 25.193359 296.6543 L 25.193359 292.71094 C 25.193359 292.42889 25.286248 292.19618 25.46875 292.01367 C 25.651253 291.82288 25.86979 291.72656 26.126953 291.72656 z M 42.824219 291.72656 C 43.089677 291.72656 43.308215 291.82288 43.482422 292.01367 C 43.656629 292.20447 43.744141 292.43718 43.744141 292.71094 L 43.757812 296.6543 C 43.757813 296.91146 43.661501 297.14418 43.470703 297.35156 C 43.288201 297.55066 43.073086 297.65039 42.824219 297.65039 C 42.567056 297.65039 42.346564 297.55408 42.164062 297.36328 C 41.98156 297.16419 41.890625 296.92805 41.890625 296.6543 L 41.890625 292.71094 C 41.890625 292.42889 41.98156 292.19618 42.164062 292.01367 C 42.346564 291.82288 42.567056 291.72656 42.824219 291.72656 z M 36.255859 291.85156 L 37.201172 291.85156 C 37.466631 291.85156 37.695921 291.9513 37.886719 292.15039 C 38.077517 292.34119 38.171875 292.56853 38.171875 292.83398 C 38.171875 293.07456 38.08094 293.29847 37.898438 293.50586 C 37.724231 293.70495 37.491517 293.80469 37.201172 293.80469 L 36.255859 293.80469 L 36.255859 291.85156 z M 36.255859 295.31055 L 37.015625 295.31055 C 37.314266 295.31055 37.571425 295.41908 37.787109 295.63477 C 38.002794 295.85045 38.109375 296.10761 38.109375 296.40625 C 38.109375 296.70489 38.002794 296.96547 37.787109 297.18945 C 37.571425 297.40513 37.314266 297.51367 37.015625 297.51367 L 36.244141 297.51367 L 36.255859 295.31055 z "
         style="font-style:normal;font-variant:normal;font-weight:normal;font-stretch:normal;font-family:Staatliches;-inkscape-font-specification:Staatliches;fill:#ffffff;stroke-width:0.3110837"
         id="path832"
         d="m 26.126953,290.23438 c -0.439665,0 -0.84545,0.11195 -1.21875,0.33593 -0.373301,0.22398 -0.672504,0.52123 -0.896484,0.89453 -0.215685,0.3733 -0.322266,0.78984 -0.322266,1.2461 l -0.01367,3.94336 c 0,0.45626 0.111958,0.87622 0.335938,1.25781 0.22398,0.3733 0.517808,0.67592 0.882812,0.9082 0.373301,0.22398 0.784461,0.33594 1.232422,0.33594 0.44796,0 0.855698,-0.11196 1.220703,-0.33594 0.3733,-0.23228 0.667128,-0.5349 0.882813,-0.9082 0.22398,-0.38159 0.335937,-0.80155 0.335937,-1.25781 l -0.01172,-3.94336 c 0,-0.45626 -0.111958,-0.8728 -0.335938,-1.2461 -0.215685,-0.3733 -0.506089,-0.67055 -0.871094,-0.89453 -0.365005,-0.22398 -0.772743,-0.33593 -1.220703,-0.33593 z m 16.697266,0 c -0.439665,0 -0.847403,0.11195 -1.220703,0.33593 -0.373301,0.22398 -0.670552,0.52123 -0.894532,0.89453 -0.215684,0.3733 -0.324218,0.78984 -0.324218,1.2461 l -0.01172,3.94336 c 0,0.45626 0.111957,0.87622 0.335937,1.25781 0.22398,0.3733 0.517808,0.67592 0.882813,0.9082 0.3733,0.22398 0.784461,0.33594 1.232422,0.33594 0.44796,0 0.853745,-0.11196 1.21875,-0.33594 0.3733,-0.23228 0.667128,-0.5349 0.882812,-0.9082 0.22398,-0.38159 0.337891,-0.80155 0.337891,-1.25781 L 45.25,292.71094 c 0,-0.45626 -0.111957,-0.8728 -0.335938,-1.2461 -0.215685,-0.3733 -0.506089,-0.67055 -0.871093,-0.89453 -0.365005,-0.22398 -0.77079,-0.33593 -1.21875,-0.33593 z m -28.208985,0.0117 c -0.431369,0 -0.83373,0.10854 -1.207031,0.32422 -0.365005,0.21568 -0.658832,0.50952 -0.882812,0.88281 -0.22398,0.36501 -0.335938,0.77959 -0.335938,1.24415 0,0.50602 0.106581,0.96265 0.322266,1.36914 0.22398,0.39818 0.565228,0.73064 1.021484,0.99609 0.248867,0.14103 0.514826,0.28965 0.796875,0.44727 0.282049,0.15762 0.488365,0.27299 0.621094,0.34765 0.398187,0.22398 0.597656,0.48994 0.597656,0.79688 0,0.26546 -0.09093,0.49817 -0.273437,0.69726 -0.182503,0.1991 -0.402995,0.29883 -0.660157,0.29883 -0.257162,0 -0.477653,-0.0963 -0.660156,-0.28711 -0.182502,-0.19909 -0.273437,-0.43523 -0.273437,-0.70898 v -0.57227 c 0,-0.0415 -0.01565,-0.0625 -0.04883,-0.0625 h -1.394531 c -0.04148,0 -0.0625,0.021 -0.0625,0.0625 v 0.57227 c 0,0.45626 0.108534,0.87622 0.324219,1.25781 0.223981,0.3733 0.517808,0.67592 0.882812,0.9082 0.373301,0.22398 0.784462,0.33594 1.232422,0.33594 0.44796,0 0.853745,-0.10853 1.21875,-0.32422 0.3733,-0.22398 0.669081,-0.52318 0.884766,-0.89648 0.223981,-0.3816 0.335938,-0.80841 0.335938,-1.28125 -10e-7,-0.48944 -0.120757,-0.9006 -0.361329,-1.23242 -0.240571,-0.34012 -0.567643,-0.62515 -0.982421,-0.85743 -0.02489,-0.0166 -0.09675,-0.0533 -0.212891,-0.11133 -0.107842,-0.0581 -0.232022,-0.12455 -0.373047,-0.19921 -0.141025,-0.083 -0.274004,-0.15483 -0.398438,-0.21289 -0.116136,-0.0664 -0.194848,-0.11186 -0.236328,-0.13672 -0.306936,-0.16591 -0.518627,-0.33898 -0.634765,-0.52149 -0.116138,-0.1825 -0.173828,-0.41179 -0.173828,-0.68554 0,-0.26546 0.09093,-0.4928 0.273437,-0.6836 0.182503,-0.19909 0.402994,-0.29883 0.660156,-0.29883 0.248867,0 0.463982,0.0909 0.646485,0.27344 0.182502,0.1825 0.27539,0.41864 0.27539,0.70899 l 0.01172,1.02148 c 0,0.0332 0.01565,0.0488 0.04883,0.0488 h 1.394532 c 0.03318,0 0.04883,-0.0156 0.04883,-0.0488 v -1.02148 c 0,-0.45626 -0.111958,-0.86743 -0.335938,-1.23243 -0.215685,-0.3733 -0.509512,-0.66712 -0.882812,-0.88281 -0.365005,-0.22398 -0.767367,-0.33594 -1.207032,-0.33594 z m 3.378907,0.125 c -0.04148,0 -0.0625,0.0156 -0.0625,0.0488 l -0.01172,8.54883 c 0,0.0415 0.01565,0.0625 0.04883,0.0625 H 19.375 c 0.03318,0 0.05078,-0.021 0.05078,-0.0625 v -3.6582 h 1.865235 v 3.6582 c 0,0.0415 0.02102,0.0625 0.0625,0.0625 h 1.394531 c 0.04148,0 0.0625,-0.021 0.0625,-0.0625 l -0.02539,-8.54883 c 0,-0.0332 -0.02102,-0.0488 -0.0625,-0.0488 h -1.380859 c -0.03318,0 -0.05078,0.0156 -0.05078,0.0488 v 3.38477 h -1.865235 l 0.01172,-3.38477 c 0,-0.0332 -0.02102,-0.0488 -0.0625,-0.0488 z m 11.580078,0 c -0.03318,0 -0.04883,0.0156 -0.04883,0.0488 l -0.01367,8.54883 c 0,0.0415 0.0176,0.0625 0.05078,0.0625 h 4.019531 c 0.03318,0 0.04883,-0.0156 0.04883,-0.0488 v -1.41992 c 0,-0.0415 -0.01565,-0.0625 -0.04883,-0.0625 h -2.564453 v -2.17578 h 2.564453 c 0.03318,0 0.04883,-0.0176 0.04883,-0.0508 l -0.01172,-1.40625 c 0,-0.0332 -0.0176,-0.0488 -0.05078,-0.0488 h -2.550781 v -1.94141 h 2.550781 c 0.03318,0 0.05078,-0.0176 0.05078,-0.0508 v -1.39258 c 0,-0.0415 -0.0176,-0.0625 -0.05078,-0.0625 z m 5.238281,0 c -0.03318,0 -0.05078,0.0156 -0.05078,0.0488 l -0.02344,8.54883 c 0,0.0415 0.01565,0.0625 0.04883,0.0625 h 2.228516 c 0.481143,0 0.914796,-0.11538 1.304687,-0.34766 0.398187,-0.24057 0.71499,-0.56079 0.947266,-0.95898 0.232276,-0.39819 0.347656,-0.83722 0.347656,-1.31836 0,-0.34841 -0.06649,-0.68086 -0.199218,-0.99609 -0.132729,-0.31524 -0.319976,-0.59341 -0.560547,-0.83399 0.22398,-0.19079 0.416603,-0.43915 0.574219,-0.74609 0.165911,-0.30694 0.248046,-0.63938 0.248046,-0.9961 0,-0.43966 -0.108534,-0.84545 -0.324218,-1.21875 -0.215685,-0.3733 -0.509512,-0.6725 -0.882813,-0.89648 -0.373301,-0.23228 -0.796684,-0.34766 -1.269531,-0.34766 z m 10.841797,0 c -0.03318,0 -0.04736,0.0156 -0.03906,0.0488 l 1.394532,4.10742 -1.417969,4.44141 c -0.0083,0.0415 0.0039,0.0625 0.03711,0.0625 h 1.392578 c 0.04148,0 0.06788,-0.021 0.07617,-0.0625 l 0.857422,-3.21094 0.845703,3.21094 c 0.01659,0.0415 0.04299,0.0625 0.07617,0.0625 h 1.392578 c 0.04148,0 0.0537,-0.021 0.03711,-0.0625 l -1.40625,-4.45508 1.394531,-4.09375 c 0.0083,-0.0332 -0.0039,-0.0488 -0.03711,-0.0488 h -1.380859 c -0.04148,0 -0.06788,0.0156 -0.07617,0.0488 l -0.845703,2.96289 -0.833984,-2.96289 c -0.0083,-0.0332 -0.03274,-0.0488 -0.07422,-0.0488 z m -19.527344,1.35547 c 0.265458,0 0.48595,0.0963 0.660156,0.28711 0.174207,0.1908 0.261719,0.42351 0.261719,0.69727 l 0.01172,3.94336 c 0,0.25716 -0.09436,0.48988 -0.285156,0.69726 -0.182503,0.1991 -0.399571,0.29883 -0.648438,0.29883 -0.257163,0 -0.4757,-0.0963 -0.658203,-0.28711 -0.182502,-0.19909 -0.275391,-0.43523 -0.275391,-0.70898 v -3.94336 c 0,-0.28205 0.09289,-0.51476 0.275391,-0.69727 0.182503,-0.19079 0.40104,-0.28711 0.658203,-0.28711 z m 16.697266,0 c 0.265458,0 0.483996,0.0963 0.658203,0.28711 0.174207,0.1908 0.261719,0.42351 0.261719,0.69727 l 0.01367,3.94336 c 10e-7,0.25716 -0.09631,0.48988 -0.287109,0.69726 -0.182502,0.1991 -0.397617,0.29883 -0.646484,0.29883 -0.257163,0 -0.477655,-0.0963 -0.660157,-0.28711 -0.182502,-0.19909 -0.273437,-0.43523 -0.273437,-0.70898 v -3.94336 c 0,-0.28205 0.09094,-0.51476 0.273437,-0.69727 0.182502,-0.19079 0.402994,-0.28711 0.660157,-0.28711 z m -6.56836,0.125 h 0.945313 c 0.265459,0 0.494749,0.0997 0.685547,0.29883 0.190798,0.1908 0.285156,0.41814 0.285156,0.68359 0,0.24058 -0.09094,0.46449 -0.273437,0.67188 -0.174207,0.19909 -0.406921,0.29883 -0.697266,0.29883 h -0.945313 z m 0,3.45899 h 0.759766 c 0.298641,0 0.5558,0.10853 0.771484,0.32422 0.215685,0.21568 0.322266,0.47284 0.322266,0.77148 0,0.29864 -0.106581,0.55922 -0.322266,0.7832 -0.215684,0.21568 -0.472843,0.32422 -0.771484,0.32422 h -0.771484 z" />
    </g>
  </g>
</svg>
